<?xml version="1.0" encoding="UTF-8"?>
<svg version="1.1" xmlns="http://www.w3.org/2000/svg" width="1110" height="440">
<path d="M0 0 C14.63346151 11.39893114 24.57525057 27.47087311 27 46 C29.0053709 71.86092894 18.88549167 90.77522147 2.47265625 109.953125 C0.34156054 112.32829492 -1.8212252 114.66862618 -4 117 C-6.36580527 119.63918722 -8.68542646 122.3158727 -11 125 C-11.73734375 125.8353125 -12.4746875 126.670625 -13.234375 127.53125 C-23.85611918 139.84435472 -32.71061001 153.47255375 -40 168 C-43.19285719 165.31487545 -44.7333673 161.84483902 -46.5625 158.1875 C-54.91309373 142.11265571 -66.71434886 128.80814189 -79 115.625 C-96.58020039 96.29823247 -109.12248892 76.87172029 -108.34765625 49.98046875 C-107.36317888 31.52945736 -98.48049007 16.02864708 -85.4375 3.375 C-61.08697358 -17.66176976 -26.13384092 -18.38582719 0 0 Z M-62 3 C-62.83660156 3.42410156 -63.67320313 3.84820312 -64.53515625 4.28515625 C-79.18936906 12.41631915 -89.01246442 24.0893493 -94 40 C-97.74338468 54.59204728 -94.5754578 69.62430071 -87.05078125 82.390625 C-86.0976555 83.97084565 -86.0976555 83.97084565 -85 85 C-82.78144736 85.08783542 -80.56011504 85.10694609 -78.33984375 85.09765625 C-77.67537735 85.0962413 -77.01091095 85.09482635 -76.3263092 85.09336853 C-74.19666101 85.08775518 -72.06711661 85.07520054 -69.9375 85.0625 C-68.49674631 85.05748671 -67.05599097 85.05292351 -65.61523438 85.04882812 C-62.07678898 85.03778145 -58.53840461 85.02050792 -55 85 C-56.32 82.03 -57.64 79.06 -59 76 C-66.59 76 -74.18 76 -82 76 C-81.67 75.01 -81.34 74.02 -81 73 C-79.35451172 72.92652344 -79.35451172 72.92652344 -77.67578125 72.8515625 C-76.22133075 72.77649409 -74.76690484 72.70094803 -73.3125 72.625 C-72.59126953 72.5940625 -71.87003906 72.563125 -71.12695312 72.53125 C-65.31511737 72.21955696 -65.31511737 72.21955696 -60 70 C-58.97181614 67.84175066 -58.97181614 67.84175066 -58.6875 65.375 C-58.54699219 64.55773437 -58.40648437 63.74046875 -58.26171875 62.8984375 C-58.17535156 62.27195313 -58.08898437 61.64546875 -58 61 C-60.73249341 60.24722485 -63.28100683 59.83358297 -66.109375 59.68359375 C-67.24052734 59.62075195 -67.24052734 59.62075195 -68.39453125 59.55664062 C-69.17183594 59.51732422 -69.94914062 59.47800781 -70.75 59.4375 C-71.93916016 59.37272461 -71.93916016 59.37272461 -73.15234375 59.30664062 C-75.10137815 59.20097009 -77.05066748 59.10002034 -79 59 C-79 58.34 -79 57.68 -79 57 C-71.74 56.67 -64.48 56.34 -57 56 C-55.35284977 53.16794971 -55.35284977 53.16794971 -57 46 C-67.56 45.34 -78.12 44.68 -89 44 C-89.495 42.515 -89.495 42.515 -90 41 C-89.35039307 41.00523682 -88.70078613 41.01047363 -88.03149414 41.01586914 C-85.04183957 41.03686503 -82.05220059 41.0497313 -79.0625 41.0625 C-78.04091797 41.07087891 -77.01933594 41.07925781 -75.96679688 41.08789062 C-69.8878003 41.10731234 -64.0273768 40.79820318 -58 40 C-57.67 38.68 -57.34 37.36 -57 36 C-60.46712111 34.84429296 -63.5414956 34.67164707 -67.1875 34.4375 C-68.45980469 34.35371094 -69.73210937 34.26992187 -71.04296875 34.18359375 C-72.01878906 34.12300781 -72.99460937 34.06242187 -74 34 C-74.33 33.01 -74.66 32.02 -75 31 C-70.3226879 30.9501557 -65.64553416 30.91407243 -60.96801758 30.89013672 C-59.38042504 30.88014679 -57.79285057 30.8665502 -56.20532227 30.84912109 C-35.13660093 30.62378718 -35.13660093 30.62378718 -29.9375 34.5625 C-28.49665572 38.30869513 -28.60179971 42.0333125 -29 46 C-29.495 46.99 -29.495 46.99 -30 48 C-36.93 47.505 -36.93 47.505 -44 47 C-44.66 44.69 -45.32 42.38 -46 40 C-46.33 40 -46.66 40 -47 40 C-46.94670532 40.94637329 -46.94670532 40.94637329 -46.89233398 41.91186523 C-46.73532591 44.75347554 -46.5863081 47.595449 -46.4375 50.4375 C-46.35338867 51.92733398 -46.35338867 51.92733398 -46.26757812 53.44726562 C-46.21923828 54.39150391 -46.17089844 55.33574219 -46.12109375 56.30859375 C-46.0739624 57.18314209 -46.02683105 58.05769043 -45.97827148 58.95874023 C-46 61 -46 61 -47 62 C-50.52637472 62.15672777 -53.61905851 62.04028969 -57 61 C-55.98239527 63.13875077 -55.98239527 63.13875077 -54 65 C-50.43356465 65.45390995 -48.03513432 65.5203153 -44.79296875 63.890625 C-42.69114822 62.04867652 -42.69114822 62.04867652 -42.609375 58.86328125 C-42.65578125 57.69152344 -42.7021875 56.51976562 -42.75 55.3125 C-42.80414063 53.54326172 -42.80414063 53.54326172 -42.859375 51.73828125 C-42.90578125 50.83464844 -42.9521875 49.93101562 -43 49 C-27.59099892 53.09230147 -27.59099892 53.09230147 -22.125 60.5625 C-20.2691257 66.23322702 -19.82410346 72.45334432 -21.7265625 78.19140625 C-24.36650601 83.16008042 -27.77991616 86.19729225 -33.02368164 88.09326172 C-37.7541818 89.37364807 -42.43966621 89.2495702 -47.30859375 89.1953125 C-48.75867577 89.19106766 -48.75867577 89.19106766 -50.23805237 89.18673706 C-53.30466452 89.17560407 -56.37097715 89.15051224 -59.4375 89.125 C-61.52538639 89.11496131 -63.61327738 89.10583701 -65.70117188 89.09765625 C-70.80089544 89.07568727 -75.90039705 89.04120507 -81 89 C-80.051947 90.12533092 -79.10113517 91.248338 -78.14916992 92.37036133 C-77.61998459 92.99598465 -77.09079926 93.62160797 -76.545578 94.26618958 C-69.28721293 102.40853439 -58.61342344 106.6059196 -48 108 C-38.54445993 108.519206 -29.93776027 108.41614862 -21 105 C-19.77603516 104.54173828 -19.77603516 104.54173828 -18.52734375 104.07421875 C-4.97627715 98.16844487 5.36205276 85.70950816 11.17578125 72.3984375 C16.25230304 57.62599969 15.19119725 42.98826368 8.52734375 28.8828125 C1.21639639 15.29793159 -9.75543107 6.4528493 -23.9296875 0.83984375 C-36.10284454 -2.78512684 -50.60269871 -2.85365394 -62 3 Z " fill="#42727E" transform="translate(190,139)"/>
<path d="M0 0 C0 11.22 0 22.44 0 34 C-10.56 34 -21.12 34 -32 34 C-32.66 28.39 -33.32 22.78 -34 17 C-41.77119784 15.44433762 -41.77119784 15.44433762 -48 18 C-48 35.16 -48 52.32 -48 70 C-41.77119784 72.55566238 -41.77119784 72.55566238 -34 71 C-33.34 65.06 -32.68 59.12 -32 53 C-21.44 53 -10.88 53 0 53 C0.06886985 57.7877298 0.12860026 62.57374177 0.16479492 67.36157227 C0.17988243 68.99021223 0.20035506 70.61881156 0.22631836 72.24731445 C0.26270449 74.58815535 0.2797262 76.92845919 0.29296875 79.26953125 C0.30845261 79.99775589 0.32393646 80.72598053 0.33988953 81.47627258 C0.34156525 86.50860551 0.34156525 86.50860551 -1.32128906 88.90087891 C-15.7098395 98.32165466 -37.94139369 98.93214582 -54.3125 95.875 C-66.14779413 92.97739351 -76.64156656 87.61593033 -83.25 77.1875 C-89.17236347 66.70096841 -90.19865788 56.80394798 -90.25 44.9375 C-90.270625 43.77283203 -90.29125 42.60816406 -90.3125 41.40820312 C-90.37357613 27.70424615 -87.33199703 13.94460775 -77.78125 3.58984375 C-56.82436235 -15.11509764 -23.46031282 -11.73015641 0 0 Z " fill="#252955" transform="translate(367,182)"/>
<path d="M0 0 C8.30224268 -0.04536745 16.60438734 -0.08198277 24.90672112 -0.10362434 C28.7627311 -0.1140165 32.61865114 -0.12809113 36.47460938 -0.15087891 C40.20288083 -0.17277165 43.9310663 -0.18460289 47.65939713 -0.18975449 C49.07459998 -0.19342099 50.48979867 -0.20057986 51.90496445 -0.21146011 C64.29963899 -0.3028765 75.25522758 -0.20035531 84.72265625 8.6015625 C91.95098854 16.38045573 92.69970595 24.57666053 92.3359375 34.796875 C91.82546504 42.87030461 89.68863387 48.8190524 83.8125 54.5 C74.83783313 61.70625961 64.15113285 62.04812235 53.0625 62.5625 C51.75055664 62.62727539 51.75055664 62.62727539 50.41210938 62.69335938 C48.27488005 62.79846901 46.13745762 62.89963985 44 63 C43.67 68.61 43.34 74.22 43 80 C47.29 80 51.58 80 56 80 C56 87.26 56 94.52 56 102 C37.52 102 19.04 102 0 102 C0 94.74 0 87.48 0 80 C1.98 80 3.96 80 6 80 C6 60.86 6 41.72 6 22 C4.02 22 2.04 22 0 22 C0 14.74 0 7.48 0 0 Z M43 22 C43 28.93 43 35.86 43 43 C51.37364526 41.98427174 51.37364526 41.98427174 54 39 C54.3204767 35.97572298 54.3204767 35.97572298 54.25 32.5625 C54.25773438 30.83193359 54.25773438 30.83193359 54.265625 29.06640625 C54.23269053 25.82814326 54.23269053 25.82814326 52 23 C49.03 22.67 46.06 22.34 43 22 Z " fill="#242854" transform="translate(644,175)"/>
<path d="M0 0 C11.88 0 23.76 0 36 0 C36 12.21 36 24.42 36 37 C39.3 34.69 42.6 32.38 46 30 C53.51503842 26.80868231 60.35225993 25.59443337 68.25 28.1875 C73.83279609 30.55158661 77.26770798 34.67203057 80 40 C81.2122885 44.07065635 81.12601126 48.05292779 81.09765625 52.265625 C81.0962413 53.05902283 81.09482635 53.85242065 81.09336853 54.66986084 C81.08778415 57.19661272 81.07523454 59.72327504 81.0625 62.25 C81.05748298 63.96614455 81.05292043 65.68229049 81.04882812 67.3984375 C81.03781984 71.59899269 81.02056596 75.79948117 81 80 C82.98 80 84.96 80 87 80 C87 87.26 87 94.52 87 102 C73.47 102 59.94 102 46 102 C46 94.74 46 87.48 46 80 C47.65 80 49.3 80 51 80 C50.88899025 76.81185409 50.75863821 73.62477124 50.625 70.4375 C50.5940625 69.54224609 50.563125 68.64699219 50.53125 67.72460938 C50.30127783 62.49274255 49.67595556 57.96655124 48 53 C43.45343094 51.85752349 43.45343094 51.85752349 39.125 53 C36.18188274 58.23220846 36.72828875 65.52161738 36.4375 71.4375 C36.37272461 72.67790039 36.37272461 72.67790039 36.30664062 73.94335938 C36.20161967 75.96209549 36.10041441 77.98102951 36 80 C37.98 80 39.96 80 42 80 C42 87.26 42 94.52 42 102 C28.14 102 14.28 102 0 102 C0 94.74 0 87.48 0 80 C1.98 80 3.96 80 6 80 C6 60.86 6 41.72 6 22 C4.02 22 2.04 22 0 22 C0 14.74 0 7.48 0 0 Z " fill="#232754" transform="translate(879,175)"/>
<path d="M0 0 C5.79980015 4.99206543 9.15532489 9.91793334 10.7109375 17.47265625 C11.0587802 22.66772813 10.99614507 27.83453238 10.8984375 33.03515625 C10.88335861 34.43943872 10.86967589 35.84373691 10.85742188 37.24804688 C10.82228156 40.6566574 10.77307873 44.06444895 10.7109375 47.47265625 C12.3609375 47.47265625 14.0109375 47.47265625 15.7109375 47.47265625 C15.7109375 54.73265625 15.7109375 61.99265625 15.7109375 69.47265625 C4.4909375 69.47265625 -6.7290625 69.47265625 -18.2890625 69.47265625 C-18.6190625 67.49265625 -18.9490625 65.51265625 -19.2890625 63.47265625 C-20.41054688 64.21322266 -20.41054688 64.21322266 -21.5546875 64.96875 C-22.53953125 65.60941406 -23.524375 66.25007813 -24.5390625 66.91015625 C-25.51359375 67.54824219 -26.488125 68.18632812 -27.4921875 68.84375 C-33.33916171 72.24904085 -39.93234553 72.30871637 -46.5078125 71.046875 C-52.69349686 69.10790087 -56.12024631 65.01555119 -59.4296875 59.609375 C-61.45584758 54.57160425 -61.07059282 48.28990925 -59.63671875 43.12109375 C-56.65703635 36.49673545 -51.54899977 32.2906151 -45.0390625 29.28515625 C-37.16949715 26.35552055 -28.56752612 25.59458356 -20.2890625 24.47265625 C-20.2890625 23.81265625 -20.2890625 23.15265625 -20.2890625 22.47265625 C-23.78193593 18.97978282 -28.53338805 19.5053413 -33.2890625 19.47265625 C-38.65524512 19.86160725 -43.96840225 20.69350239 -49.2890625 21.47265625 C-53.2490625 21.96765625 -53.2490625 21.96765625 -57.2890625 22.47265625 C-57.2890625 14.55265625 -57.2890625 6.63265625 -57.2890625 -1.52734375 C-41.70799499 -6.72103292 -14.12730976 -10.22292669 0 0 Z M-29.4140625 42.16015625 C-30.57495692 44.52445184 -30.57495692 44.52445184 -29.4765625 47.22265625 C-29.0846875 47.96515625 -28.6928125 48.70765625 -28.2890625 49.47265625 C-25.9594678 49.97506947 -25.9594678 49.97506947 -23.2890625 49.47265625 C-20.71391381 46.34071865 -19.2890625 44.57855046 -19.2890625 40.47265625 C-24.76869803 39.87423002 -24.76869803 39.87423002 -29.4140625 42.16015625 Z " fill="#282B57" transform="translate(800.2890625,207.52734375)"/>
<path d="M0 0 C4.91334656 4.380705 8.28000484 8.68804437 9.3125 15.25 C9.39330894 17.74499771 9.42010161 20.24199506 9.41015625 22.73828125 C9.4087413 23.44147995 9.40732635 24.14467865 9.40586853 24.8691864 C9.40030109 27.10033544 9.38775475 29.33138164 9.375 31.5625 C9.36998079 33.08137875 9.36541862 34.60025909 9.36132812 36.11914062 C9.35034236 39.82946012 9.33310034 43.53972001 9.3125 47.25 C11.2925 47.25 13.2725 47.25 15.3125 47.25 C15.3125 54.51 15.3125 61.77 15.3125 69.25 C3.7625 69.25 -7.7875 69.25 -19.6875 69.25 C-20.0175 67.27 -20.3475 65.29 -20.6875 63.25 C-21.18378906 63.65992188 -21.68007813 64.06984375 -22.19140625 64.4921875 C-29.17753843 70.03337014 -35.75980474 72.24879551 -44.6875 71.25 C-49.76488012 70.00116503 -53.95610369 67.98139631 -57.6875 64.25 C-61.81191046 57.31258143 -62.01788489 49.55480516 -60.06640625 41.7734375 C-57.26930923 35.33389858 -52.13729744 31.65393363 -45.76953125 29.0625 C-37.86016503 26.44210096 -29.94690053 25.19110111 -21.6875 24.25 C-21.6875 23.26 -21.6875 22.27 -21.6875 21.25 C-32.12136704 17.63008695 -43.19924045 19.67091978 -53.6875 22.25 C-55.0075 22.25 -56.3275 22.25 -57.6875 22.25 C-57.6875 14.33 -57.6875 6.41 -57.6875 -1.75 C-42.52784175 -7.8138633 -14.10188928 -9.8766041 0 0 Z M-26.8125 40.375 C-29.86353451 41.96751559 -29.86353451 41.96751559 -30.6875 44.8125 C-30.6875 45.616875 -30.6875 46.42125 -30.6875 47.25 C-30.0275 47.91 -29.3675 48.57 -28.6875 49.25 C-25.65405046 49.16115 -25.65405046 49.16115 -22.6875 48.25 C-20.5355563 45.02208445 -20.48663557 43.96599191 -20.6875 40.25 C-23.71675758 38.89642957 -23.71675758 38.89642957 -26.8125 40.375 Z " fill="#262A56" transform="translate(555.6875,207.75)"/>
<path d="M0 0 C3.77560544 3.05178471 6.07403303 6.53217449 8.26171875 10.828125 C8.77025391 11.80845703 8.77025391 11.80845703 9.2890625 12.80859375 C12.62542513 20.75743928 11.26171875 27.79999344 11.26171875 36.828125 C-2.59828125 36.828125 -16.45828125 36.828125 -30.73828125 36.828125 C-29.20515358 41.14421296 -29.20515358 41.14421296 -26.73828125 44.828125 C-16.94822499 46.60977127 -7.45981303 45.23367409 2.26171875 43.828125 C5.72671875 43.333125 5.72671875 43.333125 9.26171875 42.828125 C9.26171875 50.088125 9.26171875 57.348125 9.26171875 64.828125 C-7.34322261 70.82991104 -25.67341156 74.09531166 -42.73828125 67.828125 C-51.43151339 63.75037178 -58.42630447 56.90935165 -61.73828125 47.828125 C-64.89221774 36.30574367 -64.26711581 20.08744187 -58.51953125 9.60546875 C-46.27333523 -8.59373922 -17.66759876 -11.42708114 0 0 Z M-29.73828125 16.078125 C-30.96610996 18.96695812 -30.96610996 18.96695812 -30.73828125 22.828125 C-29.15504437 22.855318 -27.57167063 22.87460806 -25.98828125 22.890625 C-25.1065625 22.90222656 -24.22484375 22.91382813 -23.31640625 22.92578125 C-20.95639745 22.83638698 -18.99329601 22.49725321 -16.73828125 21.828125 C-17.18532111 17.34928804 -17.18532111 17.34928804 -19.73828125 13.828125 C-25.45382945 12.94795248 -25.45382945 12.94795248 -29.73828125 16.078125 Z " fill="#262A55" transform="translate(479.73828125,208.171875)"/>
<path d="M0 0 C9.24 0 18.48 0 28 0 C28 4.95 28 9.9 28 15 C33.61 15 39.22 15 45 15 C45 22.26 45 29.52 45 37 C39.39 37 33.78 37 28 37 C28.11406905 40.56315677 28.24082266 44.12509159 28.375 47.6875 C28.4059375 48.69490234 28.436875 49.70230469 28.46875 50.74023438 C28.52675781 52.20493164 28.52675781 52.20493164 28.5859375 53.69921875 C28.6173584 54.59471436 28.6487793 55.49020996 28.68115234 56.4128418 C29.03092377 59.25091824 29.73789244 61.43793847 31 64 C35.26159382 66.13079691 41.40763702 65.04502317 46 65 C46 71.93 46 78.86 46 86 C39.49389196 88.43979051 35.5670534 89.64782363 29 90 C28.05898438 90.06445312 27.11796875 90.12890625 26.1484375 90.1953125 C17.54688152 90.52870614 9.70740519 88.90687558 2.5625 83.875 C-5.32652256 75.02390152 -4.49557655 64.49776439 -4.25 53.375 C-4.22989608 51.78257465 -4.21165221 50.19012467 -4.1953125 48.59765625 C-4.15164294 44.73115311 -4.08283518 40.86585424 -4 37 C-5.98 37 -7.96 37 -10 37 C-10 29.74 -10 22.48 -10 15 C-8.02 14.01 -6.04 13.02 -4 12 C-0.69132686 7.89268162 -0.80717966 5.65025764 0 0 Z " fill="#242854" transform="translate(829,189)"/>
<path d="M0 0 C0 8.25 0 16.5 0 25 C-8.625 24.8125 -8.625 24.8125 -11.30712891 24.72973633 C-16.25208835 24.67798287 -19.84432839 25.0236406 -24 28 C-27.1933364 32.6687825 -27.68068992 37.38843212 -28.1875 42.875 C-28.3102832 44.050625 -28.3102832 44.050625 -28.43554688 45.25 C-28.63411675 47.16561529 -28.81851747 49.08269042 -29 51 C-25.04 51 -21.08 51 -17 51 C-17 58.26 -17 65.52 -17 73 C-32.84 73 -48.68 73 -65 73 C-65 65.74 -65 58.48 -65 51 C-63.02 51 -61.04 51 -59 51 C-59 41.43 -59 31.86 -59 22 C-60.98 22 -62.96 22 -65 22 C-65 14.74 -65 7.48 -65 0 C-53.12 0 -41.24 0 -29 0 C-28.505 3.465 -28.505 3.465 -28 7 C-27.36384766 6.40251953 -27.36384766 6.40251953 -26.71484375 5.79296875 C-18.37870461 -1.73703826 -10.56373898 -4.22549559 0 0 Z " fill="#252955" transform="translate(640,204)"/>
<path d="M0 0 C11.88 0 23.76 0 36 0 C36 26.4 36 52.8 36 80 C37.98 80 39.96 80 42 80 C42 87.26 42 94.52 42 102 C28.14 102 14.28 102 0 102 C0 94.74 0 87.48 0 80 C1.98 80 3.96 80 6 80 C6 60.86 6 41.72 6 22 C4.02 22 2.04 22 0 22 C0 14.74 0 7.48 0 0 Z " fill="#232754" transform="translate(371,175)"/>
<path d="M0 0 C2.0390625 -0.25390625 2.0390625 -0.25390625 5.5390625 0.49609375 C8.01952245 3.25453628 9.82194749 6.21796509 11.5390625 9.49609375 C14.41099051 6.81723653 15.87693523 4.05779503 17.5390625 0.49609375 C29.18846641 -0.35113563 42.18830172 2.3338089 51.5390625 9.49609375 C51.22339711 12.44230406 50.55883399 13.47624889 48.43359375 15.609375 C45.06967325 17.80205193 42.11741032 18.70988822 38.2265625 19.68359375 C36.97230469 20.00714844 35.71804687 20.33070313 34.42578125 20.6640625 C16.67398989 24.46419472 -7.00341246 25.03169148 -23.4609375 16.49609375 C-25.828125 14.61328125 -25.828125 14.61328125 -27.4609375 12.49609375 C-27.47265625 10.40625 -27.47265625 10.40625 -26.4609375 8.49609375 C-18.89299123 2.67586492 -9.04669233 1.8236983 0 0 Z " fill="#40707D" transform="translate(137.4609375,303.50390625)"/>
<path d="M0 0 C1.23298828 -0.01224609 2.46597656 -0.02449219 3.73632812 -0.03710938 C20.39044966 -0.06378442 20.39044966 -0.06378442 25.75 4.25 C27.69476509 8.22408519 27.88918886 11.83050174 27.1875 16.1875 C26.5275 17.1775 25.8675 18.1675 25.1875 19.1875 C15.77747722 18.22394647 15.77747722 18.22394647 11.1875 17.1875 C10.5275 15.2075 9.8675 13.2275 9.1875 11.1875 C9.29578125 12.22197266 9.29578125 12.22197266 9.40625 13.27734375 C9.99879515 19.27686343 10.47455007 25.15944849 10.1875 31.1875 C8.1875 33.1875 8.1875 33.1875 5.1875 33.3125 C4.1975 33.27125 3.2075 33.23 2.1875 33.1875 C1.5275 33.1875 0.8675 33.1875 0.1875 33.1875 C0.5175 33.8475 0.8475 34.5075 1.1875 35.1875 C-0.4625 34.8575 -2.1125 34.5275 -3.8125 34.1875 C-3.8125 33.5275 -3.8125 32.8675 -3.8125 32.1875 C-6.40507669 31.32330777 -8.15287707 31.01169068 -10.82421875 30.87109375 C-11.58154297 30.82919922 -12.33886719 30.78730469 -13.11914062 30.74414062 C-14.29766602 30.68516602 -14.29766602 30.68516602 -15.5 30.625 C-16.69592773 30.56022461 -16.69592773 30.56022461 -17.91601562 30.49414062 C-19.88131447 30.38822632 -21.84688496 30.28737449 -23.8125 30.1875 C-23.8125 28.8675 -23.8125 27.5475 -23.8125 26.1875 C-16.5525 25.8575 -9.2925 25.5275 -1.8125 25.1875 C-1.8125 22.2175 -1.8125 19.2475 -1.8125 16.1875 C-2.69808594 16.19910156 -3.58367187 16.21070313 -4.49609375 16.22265625 C-14.30727202 16.29412165 -24.02560069 15.85832786 -33.8125 15.1875 C-34.1425 13.8675 -34.4725 12.5475 -34.8125 11.1875 C-34.16289307 11.16244385 -33.51328613 11.1373877 -32.84399414 11.11157227 C-29.85418912 10.99436149 -26.86460465 10.87221081 -23.875 10.75 C-22.34262695 10.69102539 -22.34262695 10.69102539 -20.77929688 10.63085938 C-14.74659791 10.38029999 -8.804795 9.93106945 -2.8125 9.1875 C-2.4825 8.1975 -2.1525 7.2075 -1.8125 6.1875 C-7.4225 5.8575 -13.0325 5.5275 -18.8125 5.1875 C-19.1425 3.8675 -19.4725 2.5475 -19.8125 1.1875 C-13.19192556 -0.05879159 -6.71717835 0.0034786 0 0 Z " fill="#517D89" transform="translate(134.8125,168.8125)"/>
<path d="M0 0 C3.65499029 -0.3399991 5.59659411 -0.22540617 8.83789062 1.58569336 C11.66189314 4.73909905 11.61905315 6.43577233 11.59375 10.62890625 C11.59117187 11.91087891 11.58859375 13.19285156 11.5859375 14.51367188 C11.56418457 15.5103186 11.56418457 15.5103186 11.54199219 16.52709961 C11.50005026 18.56006389 11.5009307 20.58972194 11.5078125 22.62304688 C11.40900861 32.43921312 11.40900861 32.43921312 9.62695312 34.88256836 C7.28604697 36.4903606 5.77473858 36.41621079 3 36 C1.36206055 34.94604492 1.36206055 34.94604492 0 33 C-0.26153069 30.41225229 -0.34958438 28.07100347 -0.29296875 25.48828125 C-0.28872391 24.76005661 -0.28447906 24.03183197 -0.28010559 23.28153992 C-0.26332733 20.95814873 -0.22567855 18.6356285 -0.1875 16.3125 C-0.17245197 14.73634066 -0.15876377 13.16016771 -0.14648438 11.58398438 C-0.11342685 7.72232123 -0.06165194 3.86130822 0 0 Z " fill="#4B7985" transform="translate(171,198)"/>
<path d="M0 0 C6.32893188 -0.08410541 6.32893188 -0.08410541 9.5390625 2.65625 C11.11813888 5.74574726 11.73830144 7.08324361 10.9765625 10.46875 C8.50891791 13.73475019 7.02038055 15.25128791 2.9765625 16.09375 C-1.13633017 15.23689736 -2.62030682 13.89139067 -5.0234375 10.46875 C-4.95182321 6.31512134 -4.79832584 1.11158128 0 0 Z " fill="#517D89" transform="translate(155.0234375,152.53125)"/>
<path d="M0 0 C0.33 0 0.66 0 1 0 C1 2.97 1 5.94 1 9 C-5.6 9.33 -12.2 9.66 -19 10 C-19.33 10.66 -19.66 11.32 -20 12 C-20.66 12 -21.32 12 -22 12 C-21.67 10.68 -21.34 9.36 -21 8 C-19.89140625 7.93941406 -18.7828125 7.87882813 -17.640625 7.81640625 C-16.1770718 7.73197049 -14.71353075 7.64732401 -13.25 7.5625 C-12.15558594 7.50352539 -12.15558594 7.50352539 -11.0390625 7.44335938 C-7.5727027 7.23852902 -4.34666974 6.9147998 -1 6 C-0.67 4.02 -0.34 2.04 0 0 Z " fill="#A7BDC2" transform="translate(130,203)"/>
<path d="M0 0 C7.59 0 15.18 0 23 0 C23 0.99 23 1.98 23 3 C23.33 3.99 23.66 4.98 24 6 C21.525 5.505 21.525 5.505 19 5 C19 4.34 19 3.68 19 3 C15.28720531 1.76240177 11.68693654 1.64391103 7.8125 1.4375 C7.06291016 1.39431641 6.31332031 1.35113281 5.54101562 1.30664062 C3.69421625 1.20077315 1.84713166 1.0999024 0 1 C0 0.67 0 0.34 0 0 Z " fill="#ABBFC5" transform="translate(112,198)"/>
<path d="M0 0 C-0.33 2.31 -0.66 4.62 -1 7 C-1.33 7 -1.66 7 -2 7 C-2.33 5.35 -2.66 3.7 -3 2 C-7.60742865 3.21044132 -7.60742865 3.21044132 -12 5 C-11 2 -11 2 -9.375 0.8125 C-6.19617272 -0.27499354 -3.33338467 -0.1282071 0 0 Z " fill="#BFC0CD" transform="translate(537,246)"/>
<path d="M0 0 C6.27 0 12.54 0 19 0 C18.34 1.32 17.68 2.64 17 4 C17 3.34 17 2.68 17 2 C11.39 1.67 5.78 1.34 0 1 C0 0.67 0 0.34 0 0 Z " fill="#AFC4C9" transform="translate(116,173)"/>
<path d="" fill="#404040" transform="translate(0,0)"/>
<path d="" fill="#000000" transform="translate(0,0)"/>
</svg>
